<svg width="200" height="200" viewBox="0 0 200 200" fill="none" xmlns="http://www.w3.org/2000/svg">
  <g opacity="1" transform="scale(1.3) translate(-30, -38)">
    <path fill-rule="evenodd" clip-rule="evenodd"
      d="M147.259 86.1246L130.396 46.2368C111.129 73.1331 72.7094 43.1317 61.4371 71.9088L57.7177 63.251C56.391 60.1618 52.834 58.8001 49.8061 60.2119C46.7781 61.6236 45.3968 65.2999 46.7235 68.3891L71.0947 124.97L94.9355 180.363C96.2623 183.452 99.8192 184.814 102.847 183.402C105.875 181.99 107.257 178.314 105.93 175.225L87.0333 131.349C93.8792 114.773 110.168 118.514 126.264 118.594C142.552 118.692 153.714 101.387 147.259 86.1246Z"
      fill="#4caf50" />
  </g>
  <g transform="scale(1.4) translate(-30, 00)">
    <path fill-rule="evenodd" clip-rule="evenodd"
      d="M129.028 25.8056C129.762 24.2219 131.096 22.9946 132.735 22.3937C134.373 21.7927 136.184 21.8674 137.768 22.6011L148.69 27.6628C150.274 28.3971 151.501 29.7303 152.102 31.3692C152.703 33.0082 152.629 34.8188 151.895 36.4027L148.79 43.1014L125.924 32.5043L129.028 25.8056ZM123.156 38.4765L105.54 76.489C104.806 78.0729 104.73 79.8837 105.331 81.523L108.261 89.515C108.862 91.1542 110.09 92.4876 111.674 93.2218C113.258 93.9559 115.069 94.0307 116.709 93.4297L124.701 90.4994C126.34 89.898 127.673 88.6702 128.407 87.0861L146.023 49.0736L123.156 38.4765Z"
      fill="#fff" />
  </g>
</svg>